<svg version="1.1" id="レイヤー_1" xmlns="http://www.w3.org/2000/svg" x="0" y="0" viewBox="0 0 24 24" style="enable-background:new 0 0 24 24" xml:space="preserve"><style>.st1{fill-rule:evenodd;clip-rule:evenodd}</style><path d="m11.89 14.78-3.27.01c-.04 0-.09.03-.1.08l-.25.72c-.02.08.03.15.1.15h1.27c.1 0 .15.12.08.19L7.7 18.11h.01l1.04 3.4c.02.08-.03.14-.1.14H7.63c-.05 0-.09-.03-.1-.08L7 19.83c-.03-.11-.17-.11-.21-.01l-.43 1.22c-.01.02-.01.05 0 .07l.39 1.48c.01.05.06.08.1.08h3.29c.07 0 .12-.08.1-.14l-1.33-4.28c-.01-.04 0-.08.03-.11l3.02-3.18c.08-.06.02-.18-.07-.18z"/><path d="m8.02 13-1.99.01c-.04 0-.09.03-.1.08l-.26.72c-.03.08.03.15.1.15h.84c.07 0 .12.08.1.15l-2.37 6.72c-.04.1-.17.1-.21 0l-1.7-4.85c-.03-.08.03-.15.1-.15h.87c.04 0 .09.03.1.08l.62 1.75c.04.1.17.1.21 0l.95-2.72a.109.109 0 0 0-.1-.15H1.11c-.07 0-.12.08-.1.15l3.13 9c.04.1.17.1.21 0l3.79-10.77c.01-.09-.04-.17-.12-.17z" style="fill:#d8141c"/><path class="st1" d="M19.87 6.24 16.54.47a.949.949 0 0 0-1.3-.35L9.48 3.46c-.2.11-.34.28-.41.47-.09.23-.09.49 0 .72.02.04.03.07.05.11l3.33 5.77c.26.46.84.61 1.3.35l5.77-3.33c.46-.27.62-.85.35-1.31zm-6.55 3.65-2.79-4.84 5.56-3.21 2.79 4.84-5.56 3.21z"/><path transform="rotate(-30 12.615 6.04)" class="st1" d="M12.14 5.56h.95v.95h-.95z"/><path transform="rotate(-30 13.566 7.688)" class="st1" d="M13.09 7.21h.95v.95h-.95z"/><path transform="rotate(-30 14.263 5.089)" class="st1" d="M13.79 4.61h.95v.95h-.95z"/><path transform="rotate(-30 15.91 4.137)" class="st1" d="M15.43 3.66h.95v.95h-.95z"/><path transform="rotate(-30 15.212 6.736)" class="st1" d="M14.74 6.26h.95v.95h-.95z"/><path transform="rotate(-30 16.86 5.785)" class="st1" d="M16.39 5.31h.95v.95h-.95z"/><path d="M7 3.5h.83c-.17.47-.19 1-.04 1.5H7v1.92c.71.67 1.35 1.34 1.99 1.98.76.77 1.49 1.52 2.28 2.24.27.46.67.8 1.13 1 .14.12.28.24.43.35.1.09.17.2.22.32.05.12.08.25.08.37v.67c-.28-.34-.71-.58-1.23-.58h-.42L5.96 8c-.29-.28-.46-.67-.46-1.08V5c0-.83.67-1.5 1.5-1.5zM22 6.92l-.95.92c-.2.39-.52.72-.92.96l-.2.1-3.75 3.59a.986.986 0 0 0-.3.69l-.03 5.53L13.12 20v-4.07c-.02.03-.05.05-.07.08l-1.43 1.51V20c0 .51.26.99.7 1.27.43.28.98.31 1.44.09l2.74-1.28c.52-.25.86-.77.86-1.35l.03-5.3L23.04 8c.29-.28.46-.67.46-1.08V5c0-.83-.67-1.5-1.5-1.5h-2.16L20.7 5H22v1.92z"/></svg>