<svg width="25" height="24" xmlns="http://www.w3.org/2000/svg"><path d="M8.422 4H5.39a.915.915 0 0 0-.629.247.82.82 0 0 0-.26.595v2.181c0 .44.19.873.518 1.185l4.815 4.562v1.348l.566-.002c.349 0 .654.104.903.275v-1.97a.8.8 0 0 0-.067-.322.838.838 0 0 0-.193-.273L5.969 7.023V5.371h3.364V4h-.5a1.64 1.64 0 0 1-.41 0ZM15.415 4v1.371h.316c.258-.062.528-.063.785 0h2.515v1.652l-5.062 4.803a.838.838 0 0 0-.193.273.802.802 0 0 0-.067.322l-.025 4.76-2.382 1.105v-1.192L9.833 18.64v.518c0 .143.04.284.113.41.074.125.18.23.31.306a.925.925 0 0 0 .864.038l3.555-1.684a.84.84 0 0 0 .492-.754V12.77l4.815-4.562c.329-.312.518-.744.518-1.185v-2.18a.82.82 0 0 0-.26-.596A.915.915 0 0 0 19.61 4h-4.196Z"/><path fill-rule="evenodd" clip-rule="evenodd" d="M10.584.129a.63.63 0 0 1 1.01.503v6.283a.632.632 0 0 1-1.26 0V1.894l-1.325.993a.627.627 0 0 1-.883-.128.627.627 0 0 1 .128-.883L10.584.13ZM13.154 2.453a.632.632 0 0 1 1.261 0v4.973l1.336-.985a.634.634 0 0 1 .877.139l.004.005a.634.634 0 0 1-.138.877L14.16 9.183a.63.63 0 0 1-.647.065l-.01-.005-.011-.006a.64.64 0 0 1-.338-.56V2.452Z"/><path d="m10.4 15.616-2.97.007a.1.1 0 0 0-.093.07l-.227.656c-.02.069.027.138.094.138h1.154c.087 0 .133.11.073.172L6.59 18.642h.006l.948 3.087c.02.07-.027.131-.094.131h-.927a.095.095 0 0 1-.093-.069l-.474-1.581c-.027-.097-.154-.097-.187-.007l-.387 1.112a.1.1 0 0 0 0 .062l.354 1.347c.013.041.053.076.093.076h2.99c.066 0 .113-.07.093-.131l-1.208-3.89c-.013-.034 0-.075.027-.103l2.742-2.887c.06-.062.013-.173-.074-.173Z"/><path d="m6.883 14-1.808.007a.1.1 0 0 0-.093.069l-.234.656a.102.102 0 0 0 .094.138h.76c.067 0 .114.07.094.139L3.54 21.114a.098.098 0 0 1-.187 0l-1.548-4.406a.102.102 0 0 1 .093-.138h.78a.1.1 0 0 1 .094.069l.56 1.588c.034.09.154.09.188 0l.867-2.473a.102.102 0 0 0-.094-.138H.598c-.067 0-.113.07-.093.138l2.842 8.179c.033.09.154.09.187 0l3.443-9.795c.02-.069-.027-.138-.094-.138Z" fill="#D8141C"/></svg>